<?xml version="1.0" encoding="UTF-8"?>
<svg id="Layer_2" data-name="Layer 2" xmlns="http://www.w3.org/2000/svg" viewBox="0 0 64.28 46.86">
  <defs>
    <style>
      .cls-1 {
        fill: #a2bc59;
      }

      .cls-1, .cls-2, .cls-3 {
        stroke-miterlimit: 10;
      }

      .cls-1, .cls-3 {
        stroke: #a2bc59;
      }

      .cls-2 {
        fill: #74c3cd;
        stroke: #74c3cd;
      }

      .cls-3 {
        fill: #fff;
      }
    </style>
  </defs>
  <g id="Layer_1-2" data-name="Layer 1">
    <path class="cls-2" d="M7.24,17.48c-4.54,1.52-8.85,8.05-2.76,16.12,1.45,1.92,10.37,12.23,18.46,12.49,11.45.36,6.81-8,8.4-9.52,4.06-3.89,12.27-1.07,19.64-.97,20.09.29,15.65-14.03-6.98-18.98-9.45-2.06-23.03-3.73-36.75.86Z"/>
    <path class="cls-3" d="M15.39,46.1s-5.65-3.43-8.29-6.14c-3.88-3.98-8.41-5.68-5.8-19.73C6.11-5.7,30.69-.52,36.86,5.09c3.88,3.53,11.13,14.09,11.7,21.94.34,4.64-1.88,10.29-1.88,10.29,0,0-6.93-3.11-13.54-6.31s-12.92-9.77-12.92-9.77c0,0-3.46,5.22-2.55,11.03s-2.27,13.83-2.27,13.83Z"/>
    <path class="cls-1" d="M22.32.52C12.73.05,3.86,7.4,1.3,20.23c-.95,4.74-1.37,9.74.59,13.89,2.15,4.54,13.5,11.98,13.5,11.98,0,0,2.38-6.56,2.69-8.51.57-3.5-2-7.06.58-13.4.39-.94,1.54-2.95,1.54-2.95,0,0,4.77,4.17,6.34,5.59,2.37,2.15,9.99,5.85,9.99,5.85,0,0-1.29-2.34-2.69-4.02-2.38-2.85-6.45-3.53-8.37-8.86-.6-1.67-1.83-7.39-3.36-6.91-2.17.68-2.21,4.24-2.95,5.34-.95,1.41-2.43,9.12-2.27,12.25.17,3.35-.07,6.94-.76,8.59-.86,2.07-4.15,1.3-6.47-.42C7.9,37.34.04,26.38,3.27,16.52,6.5,6.67,17.16,1.63,22.36,2.26c5.2.64,6.42,2.9,9.26,6.56,1.68,2.17,4.59,7.24,7.94,10.86,2.31,2.49,6.99,3.71,7.72,6,.82,2.54-.25,9.61-.25,9.61,0,0,1.02-3.03,1.54-6.36.73-4.67-1.77-8.95-3.44-12.31C38.79,3.8,32.38,1.02,22.32.52Z"/>
  </g>
</svg>