<?xml version="1.0" encoding="UTF-8"?>
<svg id="Layer_2" data-name="Layer 2" xmlns="http://www.w3.org/2000/svg" viewBox="0 0 65.25 43.46">
  <defs>
    <style>
      .cls-1 {
        fill: #fff;
      }

      .cls-1, .cls-2, .cls-3 {
        stroke-miterlimit: 10;
      }

      .cls-1, .cls-3 {
        stroke: #d03f3e;
      }

      .cls-2 {
        fill: #74c3cd;
        stroke: #74c3cd;
      }

      .cls-3 {
        fill: #d03f3e;
      }
    </style>
  </defs>
  <g id="Layer_1-2" data-name="Layer 1">
    <path class="cls-2" d="M49.38,13.53c-6.51-2.99-6.57-6.14-18.27-6.56-2.78-.1-15.71-1.16-15.95,3.03-.33,5.93,7.24,9.55,9.68,11.08,11.62,7.26-17.5,6.02-15.04,11.34,5.37,11.66,39.1,11.9,48.64,9.02,10.96-3.31,7.48-20.31-9.06-27.89Z"/>
    <path class="cls-1" d="M15.21,5.96s3.31-5,7.6-4.69c8.71.62,9.54-1.51,14-.48,1.81.42,2.23,1.65,4.77,2.86,7.62,3.64,8.99,9.82,6.27,15.83-2.91,6.43-11.06,11.16-20.68,13.93-3.21.92-6.08,2.96-9.64,2.99-5.76.05-16.49-11.29-16.49-11.29,0,0,8.52-1.26,12.34-4.77s9.54-6.95,9.54-6.95c0,0-3.29-2.95-4.04-3.63-2.88-2.57-3.66-3.81-3.66-3.81Z"/>
    <path class="cls-3" d="M48.86,16.45c.62-2.95-.39-8.26-3.17-10.09-4.11-2.71-6.75-4.81-7.97-5.25-2.56-.92-5.27.26-9.33.17s-7.43-.15-9.42,1.04c-1.39.84-3.77,3.64-3.77,3.64l7.7,7.44,8.19-6.43s-5.68,2.55-8.3,2.39c-3.13-.2-4.83-3.38-4.32-3.95,3.17-3.58,18.32-4.62,18.74-3.41.47,1.36-5.69,8.68-7.05,12.34-2.28,6.12,1.99,12.2-1.04,14.1-3.03,1.9-6.84,3.59-8.98,3.92-2.14.33-16.74-7.71-16.74-7.71l-2.38.46s7.98,7.8,15.13,11.12c2.66,1.23,6.35-.99,9.34-2.2,3.71-1.51,6.55-2.28,7.65-2.69,5.93-2.18,14.23-7.89,15.7-14.89Z"/>
  </g>
</svg>