<?xml version="1.0" encoding="UTF-8"?>
<svg id="Layer_2" data-name="Layer 2" xmlns="http://www.w3.org/2000/svg" viewBox="0 0 63.59 44.66">
  <defs>
    <style>
      .cls-1 {
        fill: #ffd372;
      }

      .cls-1, .cls-2, .cls-3 {
        stroke-miterlimit: 10;
      }

      .cls-1, .cls-3 {
        stroke: #ffd372;
      }

      .cls-2 {
        fill: #74c3cd;
        stroke: #74c3cd;
      }

      .cls-3 {
        fill: #fff;
      }
    </style>
  </defs>
  <g id="Layer_1-2" data-name="Layer 1">
    <path class="cls-2" d="M41.83,17.74c-7.04-.52-15.23-.24-26.25,2.68-2.62.69-10.58,5.76-9.41,9.09,1.66,4.71,12.57.4,15.35.91,13.2,2.43-8.47,9.03-3.72,11.79,7.79,4.52,33.76-.37,41.68-5.26,9.09-5.62.22-17.9-17.65-19.21Z"/>
    <path class="cls-3" d="M.53,26.06s.24-8.52,3.47-12.78C9.56,5.95,18.9-.49,30.99.77c25.34,2.64,8.67,29.25,3.56,34.27s-18.9,8.96-18.9,8.96c0,0-.76-4.78,2.24-10.49s4.34-12.97,4.34-12.97c0,0-2.59.81-9.2,2.9-4.57,1.45-12.52,2.61-12.52,2.61Z"/>
    <path class="cls-1" d="M44.67,11.41C43.46,2.59,33.72,1.33,30.99.77c-5.19-1.06-12.96,1.21-17.16,3.6S4.68,11.5,2.75,15.37.53,26.06.53,26.06l12.52-2.61,9.2-2.9,3.08-7.78s.93-4.93,0-6.16c-1.32-1.73-4,.1-4.97.96-1.57,1.38-3.54,5.03-6.62,8.43s-8.22,5.1-9.52,5.42c-.32.08-.7.4-1.09.83.35-1.92.93-4.64,1.58-6.25C6.92,10.49,16.98.93,27.65,1.15c10.66.22,14.16,3.28,15.08,8.06.92,4.78-3.12,15.98-5.88,19.47-2.76,3.49-8.67,6.98-11.04,8.27-2.37,1.29-10.16,4-10.16,4v3.06s15.12-4.09,18.91-8.96,11.33-14.81,10.12-23.63Z"/>
  </g>
</svg>